# xmcd
#
# Track frame offsets: 
#        150
#        22820
#        41496
#        78471
#        96165
#        124185
#        133753
#        156159
#        165275
#        185650
#
# Disc length: 2608 seconds
#
# Revision: 2
# Processed by: cddbd v1.5.2PL0 Copyright (c) Steve Scherf et al.
# Submitted via: ExactAudioCopy v0.99pb5
#
DISCID=770a2e0a
DTITLE=Anders Aarum Trio - Absence In Mind
DYEAR=2004
DGENRE=Jazz
TTITLE0=Avanti No. 1
TTITLE1=Donkey Shot
TTITLE2=Around The Kernel
TTITLE3=Mon Cherry
TTITLE4=Day-Dream
TTITLE5=Minor Frustrations
TTITLE6=Mia Mia
TTITLE7=Viveza Criolla
TTITLE8=Absence in Mind
TTITLE9=Avanti No. 2
EXTD=YEAR: 2004
EXTT0=
EXTT1=
EXTT2=
EXTT3=
EXTT4=
EXTT5=
EXTT6=
EXTT7=
EXTT8=
EXTT9=
PLAYORDER=
